<?xml version="1.0" encoding="UTF-8"?>
<svg id="_Слой_2" data-name="Слой 2" xmlns="http://www.w3.org/2000/svg" viewBox="0 0 319.94 248.68">
  <g id="_Слой_1-2" data-name="Слой 1">
    <path d="M290.85,7.27c-16-5.82-33.45-7.27-50.9-7.27-27.63,0-58.17,5.82-79.98,21.81C138.16,5.82,107.62,0,79.98,0,62.53,0,45.08,1.45,29.09,7.27,17.45,10.18,8.73,14.54,0,21.81V234.14c0,2.91,2.91,7.27,7.27,7.27h4.36c20.36-11.63,45.08-14.54,69.8-14.54s58,8.33,78.53,20.91v.91c.24-.15,.49-.3,.73-.45,.24,.15,.49,.3,.73,.45v-.91c20.53-12.58,54.38-20.91,78.53-20.91s49.44,2.91,69.8,14.54h2.91c4.36,0,7.27-4.36,7.27-7.27V21.81c-8.73-7.27-17.45-11.63-29.09-14.54Zm0,196.33c-16-5.82-33.45-7.27-50.9-7.27-24.43,0-60.22,9.95-79.31,22.81-21.86-12.87-56.23-22.81-80.66-22.81-17.45,0-34.9,1.45-50.9,7.27V36.36c16-5.82,33.45-7.27,50.9-7.27,24.72,0,59.62,8.73,79.98,21.81h0s0,0,0,0h0c20.36-13.09,55.26-21.81,79.98-21.81,17.45,0,34.9,1.45,50.9,7.27V203.6Z"/>
  </g>
</svg>