<?xml version="1.0" encoding="UTF-8"?>
<svg id="_Слой_2" data-name="Слой 2" xmlns="http://www.w3.org/2000/svg" viewBox="0 0 200 155.45">
  <g id="_Слой_2-2" data-name="Слой 2">
    <path d="M181.82,4.55c-10-3.64-20.91-4.55-31.82-4.55-17.27,0-36.36,3.64-50,13.64C87.27,3.64,68.18,0,50,0c-10.91,0-21.82,.91-31.82,4.55C10.91,6.36,5.45,9.09,0,13.64V146.36c0,1.82,1.82,4.55,4.55,4.55h1.82c12.73-7.27,28.18-9.09,43.64-9.09s37.27,5.45,50,13.64c12.73-8.18,34.55-13.64,50-13.64s30.91,1.82,43.64,9.09h1.82c2.73,0,4.55-2.73,4.55-4.55V13.64c-5.45-4.55-10.91-7.27-18.18-9.09Z"/>
  </g>
</svg>