<?xml version="1.0" encoding="UTF-8"?>
<svg id="_Слой_2" data-name="Слой 2" xmlns="http://www.w3.org/2000/svg" viewBox="0 0 671 671">
  <defs>
    <style>
      .cls-1 {
        fill: #222;
      }

      .cls-2 {
        fill: #fff;
        stroke: #f44242;
        stroke-miterlimit: 10;
        stroke-width: 11px;
      }

      .cls-3 {
        fill: #f44242;
      }
    </style>
  </defs>
  <g id="_Слой_1-2" data-name="Слой 1">
    <rect class="cls-2" x="5.5" y="5.5" width="660" height="660" rx="108.94" ry="108.94"/>
    <ellipse class="cls-3" cx="357.03" cy="322.76" rx="151.58" ry="73.99" transform="translate(-113.55 221.76) rotate(-30)"/>
    <g>
      <path class="cls-1" d="M76.17,356l-3.97-9.96h-25.04l-3.88,9.96h-12.87l22.83-57.92-3.17-8.2h30.42l26.18,66.12h-30.5Zm-16.49-41.7l-8.2,20.81h16.4l-8.2-20.81Z"/>
      <path class="cls-1" d="M123.25,324.43v31.56h-12.52v-57.22l-3.44-8.9h15.43l37.91,25.3v-25.3h12.43v68.06l-49.81-33.5Z"/>
      <path class="cls-1" d="M184.08,356v-57.22l-3.44-8.9h32.18v66.12h-28.74Z"/>
      <path class="cls-1" d="M278.24,356v-35.97l-20.72,37.91-20.81-37.91v35.97h-12.52v-58.63l-4.14-7.49h31.83l14.55,26.45,14.63-26.45h26.01v66.12h-28.83Z"/>
      <path class="cls-1" d="M370.19,356h-52.19v-57.22l-3.44-8.9h54.31l4.67,11.9h-26.8v12.87h20.01v11.9h-20.01v17.54h28.39l-4.94,11.9Z"/>
      <path class="cls-1" d="M463.73,356h-52.19v-57.22l-3.44-8.9h32.18v54.22h28.39l-4.94,11.9Z"/>
      <path class="cls-1" d="M473.52,356v-57.22l-3.44-8.9h32.18v66.12h-28.74Z"/>
      <path class="cls-1" d="M517.25,337.83c3.12,2.82,6.2,4.89,9.26,6.22,3.05,1.32,6.29,1.98,9.7,1.98s6.76-.59,9.7-1.76l-22.66-13.93c-4.11-2.53-7.17-5.35-9.17-8.46-2-3.11-3-6.67-3-10.67,0-3.17,.75-6.16,2.25-8.95,1.5-2.79,3.58-5.23,6.26-7.32,2.67-2.09,5.85-3.75,9.52-4.98,3.67-1.23,7.68-1.85,12.03-1.85,4,0,7.82,.57,11.46,1.72,3.64,1.15,7.32,2.9,11.02,5.25l-6.97,9.61c-4.29-3.11-9.43-4.67-15.43-4.67-2.76,0-5.38,.38-7.85,1.15l22.22,13.67c8.11,5,12.17,11.43,12.17,19.31,0,3.29-.79,6.38-2.38,9.26-1.59,2.88-3.79,5.39-6.61,7.54-2.82,2.15-6.14,3.83-9.96,5.07-3.82,1.23-7.96,1.85-12.43,1.85-5.35,0-10.29-.9-14.81-2.69-4.53-1.79-8.55-4.45-12.08-7.98l7.76-9.35Z"/>
      <path class="cls-1" d="M615.2,301.78v54.22h-28.74v-54.22h-22.66l4.67-11.9h64.71l4.67,11.9h-22.66Z"/>
    </g>
  </g>
</svg>