<svg width="18" height="20" viewBox="0 0 18 20" fill="none" xmlns="http://www.w3.org/2000/svg">
<path d="M6.66667 18.0952H10.4762C10.4762 19.1429 9.61905 20 8.57143 20C7.52381 20 6.66667 19.1429 6.66667 18.0952ZM17.1429 16.1905V17.1429H0V16.1905L1.90476 14.2857V8.57143C1.90476 5.61905 3.80952 3.04762 6.66667 2.19048V1.90476C6.66667 0.857143 7.52381 0 8.57143 0C9.61905 0 10.4762 0.857143 10.4762 1.90476V2.19048C13.3333 3.04762 15.2381 5.61905 15.2381 8.57143V14.2857L17.1429 16.1905ZM13.3333 8.57143C13.3333 5.90476 11.2381 3.80952 8.57143 3.80952C5.90476 3.80952 3.80952 5.90476 3.80952 8.57143V15.2381H13.3333V8.57143Z" fill="#828282"/>
</svg>
