<svg width="20" height="20" viewBox="0 0 20 20" fill="none" xmlns="http://www.w3.org/2000/svg">
<path d="M10 6C11.0904 6 12.1361 6.42143 12.9071 7.17157C13.6781 7.92172 14.1113 8.93913 14.1113 10C14.1113 11.0609 13.6781 12.0783 12.9071 12.8284C12.1361 13.5786 11.0904 14 10 14C8.90962 14 7.8639 13.5786 7.09289 12.8284C6.32187 12.0783 5.88872 11.0609 5.88872 10C5.88872 8.93913 6.32187 7.92172 7.09289 7.17157C7.8639 6.42143 8.90962 6 10 6ZM10 8C9.45481 8 8.93195 8.21071 8.54644 8.58579C8.16094 8.96086 7.94436 9.46957 7.94436 10C7.94436 10.5304 8.16094 11.0391 8.54644 11.4142C8.93195 11.7893 9.45481 12 10 12C10.5452 12 11.068 11.7893 11.4536 11.4142C11.8391 11.0391 12.0556 10.5304 12.0556 10C12.0556 9.46957 11.8391 8.96086 11.4536 8.58579C11.068 8.21071 10.5452 8 10 8ZM7.94436 20C7.6874 20 7.47156 19.82 7.43045 19.58L7.05016 16.93C6.40263 16.68 5.84761 16.34 5.31314 15.94L2.75387 16.95C2.52775 17.03 2.25024 16.95 2.1269 16.73L0.0712604 13.27C-0.0623562 13.05 -0.000686894 12.78 0.194599 12.63L2.3633 10.97L2.29135 10L2.3633 9L0.194599 7.37C-0.000686894 7.22 -0.0623562 6.95 0.0712604 6.73L2.1269 3.27C2.25024 3.05 2.52775 2.96 2.75387 3.05L5.31314 4.05C5.84761 3.66 6.40263 3.32 7.05016 3.07L7.43045 0.42C7.47156 0.18 7.6874 0 7.94436 0H12.0556C12.3126 0 12.5284 0.18 12.5695 0.42L12.9498 3.07C13.5974 3.32 14.1524 3.66 14.6869 4.05L17.2461 3.05C17.4722 2.96 17.7498 3.05 17.8731 3.27L19.9287 6.73C20.0624 6.95 20.0007 7.22 19.8054 7.37L17.6367 9L17.7086 10L17.6367 11L19.8054 12.63C20.0007 12.78 20.0624 13.05 19.9287 13.27L17.8731 16.73C17.7498 16.95 17.4722 17.04 17.2461 16.95L14.6869 15.95C14.1524 16.34 13.5974 16.68 12.9498 16.93L12.5695 19.58C12.5284 19.82 12.3126 20 12.0556 20H7.94436ZM9.22913 2L8.84884 4.61C7.61546 4.86 6.52597 5.5 5.73455 6.39L3.2575 5.35L2.48664 6.65L4.65534 8.2C4.24421 9.37 4.24421 10.64 4.65534 11.8L2.47636 13.36L3.24722 14.66L5.74483 13.62C6.53625 14.5 7.61546 15.14 8.83856 15.38L9.21886 18H10.7811L11.1614 15.39C12.3845 15.14 13.4638 14.5 14.2552 13.62L16.7528 14.66L17.5236 13.36L15.3447 11.81C15.7558 10.64 15.7558 9.37 15.3447 8.2L17.5134 6.65L16.7425 5.35L14.2655 6.39C13.474 5.5 12.3845 4.86 11.1512 4.62L10.7709 2H9.22913Z" fill="#828282"/>
</svg>
